<svg class="icon" viewBox="0 0 1024 1024" xmlns="http://www.w3.org/2000/svg" width="96" height="96"><path d="M306.713 359.431c-1.527 1.588-1.76 3.863-2.244 5.899-15.276 64.257-15.645 105.772-14.942 160.39.414 32.202 2.425 64.776 10.891 95.72 6.399 23.388 26.761 61.98 32.413 70.249 6.164-11.605 21.247-8.338 25.528-6.675 1.12.436 2.17 1.128 3.323 1.392 1.612.368 1.981 2.58 3.552 2.515 2.075-.086 4.361 3.636 5.53 4.851 1.03 1.072 2.312 1.935 3.18 3.118 10.833 14.76 13.24 39.903 13.335 43.262 4.271 2.192 10.902 6.578 14.632 8.246 17.671 7.902 28.645 11.184 42.149 15.443 41.4 13.059 90.314 25.033 133.475 14.753 50.618-12.056 90.449-55.39 106.086-103.793 4.545-14.07 7.427-32.684 5.784-47.523-1.843-16.635-7.67-33.308-9.826-50.122-2.8-21.855-7.762-33.45-1.577-74.472l3.099-25.995 4.43-42.85c2.58-10.783 11.722-44.154 13.517-50.22 3.165-10.701 4.57-21.917 5.762-32.913 1.778-16.396-1.039-31.563-5.754-47.217-2.4-7.972-5.411-16.25-9.224-23.86-2.84-5.67-9.756-17.94-16.531-19.793-2.66-.728-5.238-1.94-8.118-1.39.038-1.954.832-3.524 1.394-5.13 1.638-4.675 4.222-9.02 7.603-12.423 3.44-3.462 7.419-6.583 12.393-8.204 2.222-.723 4.538-1.564 6.736-1.856 2.26-.3 4.446-.992 6.742-1.178 3.133-.253 5.816.79 8.65 1.745 1.869.63 3.356 1.986 5.312 2.398.494.103 1.061.73.902 1.477-.26 1.213.48 2.191.743 3.167-6.622.945-13.476-1.268-19.897 1.668.735 1.813 1.522 3.693 3.327 4.021 1.325.242 2.39.817 3.585 1.221 1.916.648 3.782 1.558 5.837 1.702.95.067 1.935.228 1.695 1.325-.179.822-.393 2.083-1.83 1.988-1.939-.128-3.885.495-5.75.382-5.532-.332-11.106 1.25-16.598-.37-.152-.046-.354.081-.766.189 2.87 3.83 5.793 7.405 8.323 11.239 1.429 2.165 3.657 3.864 4.136 6.68.093.549.572 1.908 1.412 1.523 1.544-.707 3.192.003 4.703-.762 2.356-1.193 4.953-1.796 7.4-2.818 3.273-1.368 6.122-3.232 8.236-5.969 1.905-2.465 3.914-4.801 5.414-7.701 1.767-3.416 2.7-6.957 2.502-10.395-.213-3.676-.443-7.512-2.028-11.144-1.633-3.743-3.764-7.17-6.478-9.983-2.727-2.826-6.69-4.223-10.397-5.593-7.794-2.879-15.587-2.555-23.367.394-6.979 2.644-12.816 6.906-18.12 12.024-4.316 4.163-8.628 8.333-12.972 12.468-1.577 1.5-3.614 1.125-4.429-.83-.32-.766-.961-1.214-1.423-1.976 1.18-2.321 2.181-4.56 3.813-6.452.727-.841.935-1.449-.592-2.156-3.679-1.703-6.805-4.319-9.893-6.946-2.973-2.53-5.9-5.135-9.06-7.412-3.337-2.407-7.13-4.136-10.605-6.32-2.079-1.306-4.292-2.44-6.308-3.923-2.332-1.715-5.142-2.916-7.908-3.863-2.444-.836-4.625-1.976-6.812-3.306-2.767-1.681-5.57-3.573-8.554-4.593-4.594-1.57-8.65-4.25-13.305-5.712-2.204-.694-4.543-1.39-6.705-2.418-1.922-.912-4.17-1.259-5.907-2.408-3.959-2.62-8.598-2.935-12.94-4.112-4.204-1.14-8.58-1.765-12.932-2.38-3.725-.528-7.341-2.02-11.065-2.301-7.336-.556-14.645-1.428-22.066-1.122-11.12.458-22.26-.236-33.335 1.836-4.534.849-8.877 2.38-13.573 2.816-6.982.646-13.338 3.992-19.886 6.438-2.318.867-4.568 2.046-6.973 2.55-2.459.515-4.86 1.203-7.075 2.26-6.177 2.949-12.331 5.942-18.208 9.504-6.52 3.952-13.524 7.08-19.603 11.803-4.03 3.13-8.484 5.726-12.127 9.344-3.867 3.84-6.647 8.569-10.135 12.73-1.867 2.226-6.773 4.304-7.148 7.415L306.713 359.43zm309.08 128.283" fill="#9CCFF3"/><path d="M373.867 724.834a34.931 34.931 0 0 0-3.161-9.013c-3.18-6.146-5.375-9.421-10.149-14.91-4.73-5.44-14.35-10.688-19.022-2.25-1.31 2.366.158 7.753 3.178 8.757 1.143.38 2.003 1.338 2.546 2.297 3.728 6.577 6.948 13.361 7.71 21.078-1.187-.67-4.951-3-5.78-3.714-7.33-6.307-23.36-23.217-32.905-11.23-9.143 11.483 15.252 17.114 22.076 19.275 5.332 1.689 9.195 5.688 12.985 9.608 2.526 2.611 3.89 6.054 6.466 8.746 2.83 2.961 5.042 6.093 9.482 7.225 2.34.597 3.46-.048 4.965-1.148 2.143-1.567 4.003-3.102 4.552-6.087.92-4.99 1.207-12.505-.05-17.48-.94-3.72-2.118-7.373-2.893-11.154zm230.737 56.222c-3.18 1.581-9.964 3.574-11.987 4.441.234 2.173-.939 4.178-1.754 4.758-2.348 1.669-6.295 5.198-6.605 9.243s.682 6.98 4.72 8.36c5.145 1.76 7.118.198 11.28-2.812s6.191-6.298 9.616-9.653c1.438-1.41 2.967-2.272 4.65-3.06 1.316-.616 4.708.491 4.417 1.25-.606 1.581 1.106 2.232.995 3.192-.15 1.299-2.019 1.392-2.76 2.482-.202.298-1.19 1.754-1.328 1.838 3.563 6.832 14.367 16.07 23.92 19.5.99.71 2.198.84 3.434 1.026 6.429 1.337 10.154-4.27 10.228-6.19.136-3.501-.487-7.286-3.307-9.945-4.94-4.658-8.406-8.014-18.341-13.583s-24.114-5.427-27.178-10.847z" fill="#DEC4A1"/><path d="M406.132 386.98c-1.541-1.047-3.087-2.31-4.816-3.225-4.266-2.261-8.526-3.76-13.644-4.28-3.803-.386-9.348.854-12.66 2.32-.317 5.249 1.36 15.191 3.722 20.994.863 2.119 1.684 3.832 5.16 5.107 3.148 1.156 4.417-1.214 4.035-2.571-1.113-3.962-1.304-6.339-1.536-9.588-.143-1.987-.088-7.686.695-9.53.813-1.178 2.268-2.073 3.146.066.186 1.107-.392 3.104-.432 5.547-.088 5.22.667 12.204 3.184 17.01 1.36 2.594 2.878 4.173 8.058 2.69 2.606-.746 1.627-7.525 1.607-8.365-.067-2.887-.026-5 .376-7.872.623-4.455 2.83-8.49 3.105-8.303z" fill="#FFF"/><path d="M401.466 443.19c-.424 2.537.17 6.777 2.214 8.35 4.26 3.28 9.443 6.05 13.868 8.468 3.77 2.06 3.846 2.223 6.246 1.731 3.586-.734 12.894-3.287 16-10.736-9.056-14.629-19.73-23.447-32.102-27.115-4.113-1.22-8.496-1.534-12.474-.511-10.357 2.663-13.187 13.367-13.957 17.105-.676 3.277-.964 8.814 1.608 11.81.387.45.262 1.157-.077 1.759-.787 1.401-3.92 1.588-5.19.192-1.475-1.622-1.962-6.384-2.023-8.182-.315-9.373 2.026-13.6 3.992-17.16-3.189-2.109-6.499-.042-7.921 1.862-3.046 4.077-5.825 7.88-6.509 13.152-.703 5.412-1.527 11.388.873 16.582 1.004 2.173 2.081 5.144 4.472 6.237 5.291 2.418 10.895 3.886 16.84 1.754 5.036-1.806 9.01-7.089 8.71-12.792-.247-4.67-.686-13.76-.538-14.687.587-3.683 2.588-5.306 5.885-5.137 1.828.093 2.112 1.5 1.537 2.356-1.061 1.583-1.164 3.226-1.454 4.961z" fill="#CC526B"/><path d="M389.367 193.209c2.684-.958 4.717-2.909 7.233-3.903 1.935-.765 2.12-1.931 1.158-3.576-1.115-1.91-.749-3.737.447-5.451.652-.936.954-1.902.548-3.036.712-.125 1.65-.028 1.85-.365 1.46-2.482 3.122-.583 4.54-.169 2.231.651 2.034 3.158 3.037 4.769.636 1.02 1.13 1.638 2.47.953 3.212-1.64 6.494-3.142 9.83-4.738-.277-2.188-2.112-3.476-3.067-5.251-1.829-3.402-3.878-6.868-7.838-8.215-1.982-.675-4.042-1.528-6.225-1.191-3.363.519-6.577 1.174-9.629 3.122-2.748 1.754-4.125 4.349-5.62 6.8-2.155 3.531-1.77 7.747-1.441 11.707.243 2.93.857 5.912 2.707 8.544z" fill="#9CCFF3"/><path d="M289.31 438.108c-12.998-8.16-11.767-10.873-15.03-40.305-1.944-17.54-36.216-14.074-37.272 5.465-.886 16.402 9.254 57.688 52.302 68.78" fill="#DEC4A1"/><path d="m287.214 441.398-.478-.266c-.314-.176-.77-.425-1.432-.816a38.918 38.918 0 0 1-1.077-.643 35.226 35.226 0 0 1-1.29-.814 29.338 29.338 0 0 1-3.196-2.395c-1.18-1.018-2.492-2.348-3.63-4.05-.583-.841-1.076-1.768-1.55-2.728a27.908 27.908 0 0 1-1.18-2.97c-.679-2.027-1.17-4.098-1.568-6.214-.403-2.117-.745-4.288-1.078-6.529-.34-2.24-.65-4.549-.96-6.93l-.987-7.347-.13-.946-.033-.237-.008-.06c-.007-.057.036.293.013.116l-.02-.119-.082-.478c-.03-.207-.049-.208-.066-.264a1.46 1.46 0 0 1-.044-.15c-.065-.155-.095-.328-.163-.476a5.19 5.19 0 0 0-.968-1.633c-.832-.964-2.207-1.817-4.025-2.33-1.808-.503-3.956-.69-6.135-.5-2.18.187-4.4.744-6.382 1.638-1.991.883-3.717 2.12-4.974 3.512-1.262 1.405-2 2.962-2.299 4.707-.03.222-.064.442-.085.669l-.025.342-.007.086c0-.017-.007.098 0-.027l-.003.07-.011.278-.01.278-.008.246-.006.416.003.932c.024 1.273.107 2.581.24 3.896a63.35 63.35 0 0 0 1.29 7.901c1.177 5.23 2.98 10.252 5.142 14.875 2.165 4.63 4.769 8.838 7.623 12.505 2.834 3.684 5.91 6.84 9.015 9.438a61.35 61.35 0 0 0 9.07 6.345c2.884 1.635 5.518 2.88 7.743 3.787a80.032 80.032 0 0 0 5.255 1.94l1.904.592-2.578 10.007-2.215-.53c-1.437-.384-3.554-.932-6.196-1.85a74.65 74.65 0 0 1-9.306-3.98c-3.478-1.816-7.303-4.125-11.126-7.134-3.82-3.006-7.634-6.69-11.157-10.997-3.5-4.324-6.681-9.273-9.336-14.686-2.66-5.413-4.754-11.294-6.204-17.461-.72-3.088-1.28-6.249-1.603-9.505a59.955 59.955 0 0 1-.274-4.976l.003-1.294.017-.697.023-.588.013-.278.029-.427.065-.768a26.97 26.97 0 0 1 .21-1.537c.366-2.047 1.004-4.09 1.954-5.96a22.25 22.25 0 0 1 3.493-5.085c2.726-2.997 6.033-5.08 9.408-6.495a32.184 32.184 0 0 1 10.432-2.421c3.532-.222 7.12.123 10.63 1.284 1.753.588 3.487 1.375 5.12 2.449a18.115 18.115 0 0 1 4.411 4.028c.635.795 1.172 1.67 1.652 2.558.458.9.856 1.824 1.143 2.76.159.468.263.936.382 1.404l.155.804c.047.263.101.578.108.692l.055.48.014.121.028.235.005.06.02.242.079.964a1803.737 1803.737 0 0 1 1.106 14.331c.34 4.356.717 8.307 1.407 11.203.164.737.374 1.37.579 1.977.229.575.446 1.12.72 1.593.51.968 1.14 1.795 1.854 2.552.7.759 1.474 1.417 2.164 2.003a27.448 27.448 0 0 0 .992.805c.31.248.596.467.854.659.497.382.944.7 1.236.912l.442.32-4.196 6.579z"/><path d="M583.572 776.112c4.457 20.836-8.262 28.192 2.749 40.616 8.497 9.589 23.448 7.948 39.76 13.63 15.002 5.226 22.61 3.325 28.465-5.62 15.155-23.154-34.749-49.19-37.912-59.174" fill="#DEC4A1"/><path d="m588.418 775.128.16.53c.1.31.265.962.455 1.737.358 1.528.848 3.812 1.06 6.803.102 1.492.165 3.16.083 4.958a58.204 58.204 0 0 1-.547 5.7c-.289 1.968-.697 3.982-1.024 5.889-.32 1.907-.574 3.68-.509 5.081.063 1.418.386 2.445 1.085 3.748.357.643.833 1.325 1.419 2.039.147.179.294.359.457.54l.119.135.06.069a2.53 2.53 0 0 1-.095-.105l.041.044.328.345c.539.584.63.605.933.895.653.57 1.39 1.077 2.175 1.62a46.083 46.083 0 0 0 2.598 1.666c1.912 1.124 4.198 2.258 6.773 3.01 1.284.387 2.627.687 4.016.94 1.388.262 2.809.51 4.26.75l4.435.727c1.503.264 3.031.513 4.575.812 1.544.303 3.108.607 4.676.996.393.089.784.193 1.178.295l1.11.286 1.087.293.973.239c2.63.616 5.275 1.123 7.606 1.192a13.744 13.744 0 0 0 3.18-.23 8.377 8.377 0 0 0 2.357-.833 9.34 9.34 0 0 0 1.794-1.304l.22-.202c.072-.075.143-.153.219-.224.152-.133.3-.314.453-.466a19.917 19.917 0 0 0 .913-1.106c.155-.198.308-.405.46-.628.155-.21.304-.444.456-.674l.113-.172c.023-.035-.106.164-.033.05l.036-.058.072-.118.144-.235.066-.108.025-.05.26-.494a9.616 9.616 0 0 0 .77-2.21c.29-1.428.256-2.932-.19-4.712-.423-1.77-1.258-3.719-2.326-5.661-1.067-1.948-2.387-3.872-3.806-5.716-2.862-3.689-6.13-7.023-9.22-10.093-3.117-3.06-6.076-5.888-8.67-8.517-2.605-2.623-4.851-5.041-6.66-7.206a46.69 46.69 0 0 1-2.378-3.058 33.583 33.583 0 0 1-.932-1.381c-.273-.447-.578-.84-.652-1.35-.168-1 .243-2.136.852-2.9.143-.19.27-.352.428-.5.152-.147.254-.256.394-.36.253-.196.386-.283.386-.283s.164.001.478-.02l.514-.035.613-.058c.908-.1 1.827-.275 2.47-.122.33.07.499.305.775.53a28.179 28.179 0 0 0 .926.76 74.13 74.13 0 0 0 2.58 1.917c2.026 1.446 4.634 3.191 7.626 5.307 2.997 2.115 6.38 4.602 9.977 7.578 3.602 2.976 7.45 6.384 11.318 10.555 1.933 2.09 3.863 4.388 5.67 7.05 1.796 2.66 3.467 5.725 4.57 9.396.532 1.832.922 3.82 1.024 5.906a23.139 23.139 0 0 1-.545 6.372c-.473 2.115-1.267 4.142-2.249 5.985l-.378.682c-.13.23-.294.499-.442.744l-.196.314-.15.232-.223.34-.196.286c-.262.381-.521.76-.81 1.143a25.64 25.64 0 0 1-.88 1.141c-1.218 1.512-2.676 3.024-4.436 4.34-.426.337-.904.642-1.36.954-.481.295-.956.59-1.466.847-.995.541-2.057.98-3.126 1.346a22.572 22.572 0 0 1-6.401 1.123c-2.063.071-4.002-.1-5.828-.368-3.66-.566-6.874-1.559-9.962-2.722l-1.165-.447-1.04-.428-.305-.123-.236-.101-.472-.204c-.315-.135-.629-.273-.95-.4a68.218 68.218 0 0 0-3.894-1.462c-2.647-.893-5.384-1.628-8.178-2.251a181.805 181.805 0 0 0-4.237-.889 87.101 87.101 0 0 0-4.336-.79c-2.929-.467-6.012-.804-9.144-1.696a23.692 23.692 0 0 1-4.62-1.887 22.379 22.379 0 0 1-4.194-2.964c-.651-.58-1.513-1.423-1.83-1.787l-.324-.349-.216-.235-.096-.112-.191-.224a28.733 28.733 0 0 1-.754-.913 25.959 25.959 0 0 1-2.691-4.123 20.126 20.126 0 0 1-1.807-4.838 20.894 20.894 0 0 1-.539-4.922c.037-3.121.6-5.628 1.109-7.742.521-2.118.995-3.906 1.37-5.544.78-3.248 1.106-5.936 1.221-8.225.049-1.139.053-2.163.031-3.062-.026-.897-.08-1.666-.122-2.293a29.684 29.684 0 0 0-.13-1.43l-.06-.55 9.69-1.967z"/><path d="M463.733 316.932a67.938 67.938 0 1 0 135.876 0 67.938 67.938 0 1 0-135.876 0Z" fill="#FFF"/><path d="m604.597 317.058-.04 1.224-.05 1.5c-.014.308-.01.6-.042.985l-.097 1.22c-.08.856-.13 1.846-.263 2.87-.14 1.021-.278 2.138-.458 3.339-.23 1.194-.44 2.484-.738 3.844l-.5 2.097c-.088.36-.167.726-.266 1.093l-.324 1.111-.68 2.31-.827 2.392c-.267.822-.61 1.637-.946 2.475-.342.835-.664 1.701-1.075 2.549-1.516 3.447-3.475 7.033-5.89 10.642a73.218 73.218 0 0 1-8.727 10.693c-3.413 3.46-7.33 6.786-11.785 9.715-4.45 2.935-9.423 5.466-14.789 7.508-5.369 2.04-11.19 3.418-17.246 4.123-.755.11-1.518.152-2.284.212-.765.056-1.532.12-2.302.166l-2.322.058-1.166.027a6 6 0 0 1-.254 0l-.138-.002-.275-.006-.55-.011-2.213-.047c-.353.002-.793-.045-1.187-.067l-1.218-.086c-1.65-.085-3.204-.315-4.799-.506-3.165-.482-6.356-1.09-9.497-2.017-1.587-.407-3.132-.975-4.702-1.49-.775-.283-1.543-.594-2.317-.892l-1.161-.454-1.14-.509c-6.112-2.664-11.933-6.264-17.217-10.644-2.65-2.184-5.117-4.612-7.466-7.167-2.346-2.563-4.48-5.336-6.466-8.226-1.978-2.9-3.702-5.984-5.262-9.158-1.55-3.182-2.811-6.511-3.896-9.9-1.072-3.397-1.83-6.892-2.411-10.417l-.358-2.656c-.131-.884-.167-1.779-.254-2.668-.077-.891-.156-1.782-.169-2.676l-.085-2.807.043-2.5.011-.626c.002-.206.005-.413.024-.653l.092-1.384.094-1.386c.03-.464.064-.924.124-1.362l.319-2.667c.529-3.54 1.238-7.058 2.263-10.486 1.039-3.42 2.257-6.786 3.77-10.012 1.52-3.218 3.212-6.351 5.163-9.306 7.724-11.89 18.917-21.127 31.256-26.64l1.153-.525 1.173-.47c.783-.31 1.56-.631 2.345-.926 1.59-.535 3.154-1.123 4.762-1.551 3.182-.966 6.42-1.613 9.634-2.128 1.615-.207 3.218-.455 4.826-.55.803-.059 1.602-.143 2.401-.176l2.392-.071.596-.017.297-.008.15-.004c.02-.003.362.005.282.003l1.098.029 2.184.057c.787.046 1.617.115 2.419.173.806.064 1.626.114 2.381.225 6.16.728 12.083 2.142 17.54 4.227 5.47 2.061 10.47 4.755 14.956 7.773a73.026 73.026 0 0 1 11.817 9.999 73.991 73.991 0 0 1 8.63 10.956c2.373 3.683 4.28 7.33 5.749 10.822.4.86.712 1.734 1.044 2.58.325.847.657 1.67.914 2.5l.797 2.415.649 2.33c1.642 6.068 2.15 11.003 2.344 14.346.145 1.674.108 2.961.14 3.826l.022 1.313-.002.127zm-9.978-.126-.039-1.136c-.042-.747-.02-1.862-.172-3.304a59.706 59.706 0 0 0-2.208-12.314l-.586-1.991-.718-2.06c-.227-.71-.527-1.41-.817-2.132-.297-.72-.57-1.467-.93-2.196-1.306-2.97-3.004-6.06-5.091-9.17a63.237 63.237 0 0 0-7.545-9.218c-2.949-2.982-6.33-5.852-10.176-8.373-3.84-2.527-8.13-4.697-12.748-6.459-4.622-1.759-9.634-2.936-14.854-3.547-.662-.1-1.28-.127-1.912-.178l-1.911-.145-2.184-.053-1.098-.027-.877.02-2.031.04c-.679.022-1.357.092-2.039.134-1.366.064-2.725.27-4.096.43-2.728.417-5.478.932-8.182 1.732-1.367.345-2.695.842-4.05 1.278-.667.244-1.327.514-1.995.77l-1 .388-.982.44c-5.267 2.29-10.288 5.393-14.851 9.169-2.29 1.88-4.417 3.98-6.449 6.181-2.028 2.209-3.868 4.604-5.588 7.093-1.71 2.5-3.196 5.159-4.547 7.892-1.343 2.74-2.426 5.61-3.369 8.529-.929 2.926-1.58 5.94-2.09 8.979l-.311 2.292a13.54 13.54 0 0 0-.12 1.125l-.096 1.108-.098 1.108a7.21 7.21 0 0 0-.033.597l-.02.625-.084 2.5.041 2.194c-.004.774.055 1.546.11 2.317.064.77.076 1.546.18 2.312l.273 2.302c.457 3.055 1.059 6.092 1.941 9.049.897 2.949 1.937 5.856 3.241 8.64 1.313 2.778 2.766 5.488 4.45 8.042 6.658 10.285 16.348 18.28 26.995 23.045l.995.456 1.013.405c.676.266 1.346.546 2.023.802 1.373.456 2.721.974 4.11 1.34 2.746.84 5.542 1.391 8.318 1.843 1.392.176 2.8.4 4.124.473l1.004.084c.346.022.642.07 1.03.072l2.211.066.551.016.275.008.138.004c.07.003-.121-.004.021-.003l1.028-.028 2.047-.052 2.027-.153c.674-.054 1.346-.088 2.01-.19 5.325-.633 10.437-1.848 15.149-3.651 4.722-1.78 9.038-4.114 12.913-6.724a63.095 63.095 0 0 0 10.209-8.657 64.061 64.061 0 0 0 7.447-9.48c2.046-3.185 3.69-6.334 4.95-9.35.35-.74.612-1.498.899-2.226.28-.732.57-1.442.786-2.159l.687-2.083.555-2.01.267-.966c.08-.319.144-.638.215-.95l.405-1.82c.24-1.182.4-2.301.587-3.336l.35-2.894c.103-.883.12-1.64.18-2.34l.07-.982c.024-.302.016-.654.026-.942l.026-1.502.022-1.224-.002.125z"/><path d="m586.688 883.535-.248-.724c.228-.017.456-.094.509-.03 2.307 2.85 6.11 3.304 8.831 5.6 2.66 2.245 5.806 3.914 8.739 5.838.13.086.36.19.358.282-.068 3.114 2.705 2.452 4.335 3.41 3 1.766 6.213 3.48 8.53 5.967 1.355 1.454 2.807 2.194 4.34 3.138 2.13 1.311 3.566 3.505 5.753 4.784.386.226.732.523 1.082.777-1.423.685-2.106 2.27-3.647 3.002-1.585.754-3.143.771-4.346-.068-4.273-2.978-9.012-5.115-13.548-7.574-6.258-3.393-12.41-6.986-18.744-10.254-3.26-1.683-6.407-3.715-9.469-5.845-3.337-2.32-6.972-4.254-10.627-6.108-5.346-2.711-10.356-6.01-15.46-9.148-3.111-1.913-6.382-3.606-9.728-5.168-5.238-2.443-10.908-3.975-15.678-7.492-1.222-.9-2.876-1.481-4.766-1.715-1.913-.237-4.199-1.722-6.255-2.798-2.892-1.514-5.87-2.874-8.987-3.96-2.204-.766-4.116-2.335-6.246-3.362-4.953-2.388-9.92-4.754-14.954-6.963-6.132-2.691-12.197-5.53-18.309-8.259-6.454-2.88-12.881-5.821-19.339-8.693-6.12-2.722-12.213-5.5-18.324-8.234-2.946-1.318-5.888-2.665-8.838-3.993-.61-2.575-1.161-5.151 1.568-7.008.626-.426 1.164-.556 2.008-.458 4.067.471 7.815 1.812 11.656 3.188 4.998 1.79 9.971 3.685 14.988 5.435 3.259 1.137 6.3 2.939 9.504 4.32 3.228 1.393 6.457 2.766 9.727 4.058 4.319 1.706 8.556 3.617 12.848 5.39 6.322 2.613 12.59 5.381 19.027 7.679 2.866 1.023 5.437 3.064 8.702 2.907.515 1.914 2.407 1.369 3.633 1.942 6.828 3.196 13.808 6.078 20.578 9.388 5.742 2.808 11.564 5.486 17.034 8.835 6.008 3.68 12.14 7.167 18.017 11.044 2.387 1.575 5.157 2.598 7.186 4.858.507.565 2.052 1.016 3.14 1.405 2.455.878 3.147 3.552 5.42 4.607zm-255.415-80.53c1.778-.607 3.318-1.185 4.554-2.436 1.165-1.176 2.978-.898 4.361-1.655 1.058-.579.644 1 1.369.949 3.992-.282 7.437 1.506 10.923 3.014 5.173 2.236 10.725 3.2 16.024 4.989a1054.52 1054.52 0 0 1 22.377 7.856c7.018 2.544 14.057 5.054 20.954 7.9 5.527 2.281 11.292 4.057 16.625 6.646 4.15 2.014 8.423 3.793 12.577 5.795 5.268 2.539 10.296 5.558 15.76 7.733 3.132 1.247 5.873 3.448 8.957 4.852 3.57 1.626 6.98 3.526 10.452 5.323 1.376.712 2.357 1.822 3.227 2.94.58.745 1.139 1.407 1.944 1.79 3.018 1.432 5.736 3.533 9.177 4.042.753.112.252-.876 1.28-.56 1.951 2.328 5.017 3.805 7.967 5.363 1.825.964 4.092 1.152 5.655 2.65 1.095 1.048 2.273 2.212 2.844 3.564 1.072 2.544-.998 4.971-3.751 5.226-4.094.38-7.03-2.127-10.315-3.744-3.162-1.556-6.038-3.678-9.78-3.9-1.27-.076-2.425-1.069-3.61-1.72-3.474-1.91-7.122-3.501-10.673-5.275-2.952-1.474-5.932-2.886-8.906-4.308-5.023-2.401-10.267-4.423-15.067-7.173-5.215-2.988-11.006-4.533-16.221-7.431-2.217-1.232-4.937-1.619-7.04-2.985-3.505-2.276-7.617-2.565-11.348-4.07-4.412-1.78-8.95-3.354-13.334-5.163-3.894-1.607-8.103-2.44-11.74-4.619-.997-.597-1.957-.278-2.922-.47-3.866-.77-7.286-2.747-10.99-3.937-3.063-.983-5.746-3.056-9.158-3.064-1.076-.003-1.857-.985-2.774-1.468-2.673-1.407-6.032-1.138-8.291-3.472-.175-.18-.59-.11-.881-.195-1.923-.557-3.963-.534-5.474-2.416-1.275-1.588-3.708-1.235-5.422-1.184-3.28.098-5.235-2.517-8.084-3.094-.32-.065-.817-1.087-.676-1.308 1.146-1.79-.53-3.216-.57-4.985zm332.85 93.361c-.47.7-1.984 1.243-.86 2.576-.685 1.751-3.222-.813-3.454 1.977-4.844-2.669-9.874-4.416-14.239-7.511-1.28-.909-2.82-1.444-4.226-2.182-6.82-3.583-13.741-6.992-20.426-10.812-9.2-5.259-18.767-9.793-28.298-14.359-4.47-2.141-8.867-4.53-13.517-6.283-4.399-1.657-8.334-4.29-12.684-5.942-5.32-2.023-10.103-5.132-15.368-7.17-4.527-1.751-8.643-4.308-13.11-6.11-2.52-1.015-4.916-2.277-7.42-3.272-2.001-.795-3.141-2.37-3.16-4.058-.036-3.02.884-6.057 3.838-7.58 1.103-.57 2.886-.417 4.044.318 3.667 2.326 7.79 3.67 11.696 5.421 2.78 1.247 5.826 2.142 8.518 3.565 6.962 3.68 14.173 6.822 21.317 10.083 6.245 2.852 12.171 6.287 18.356 9.234 4.879 2.325 9.516 5.183 14.47 7.318 5.316 2.291 10.093 5.55 15.346 7.935 2.028.92 3.662 2.704 5.686 3.639 4.05 1.87 7.591 4.59 11.562 6.583 1.32.663 2.755 1.326 3.492 3.01.332.758 1.718 1.438 2.67 1.82 3.884 1.563 7.386 3.754 10.707 6.218 1.96 1.454 4.148 2.794 5.06 5.582zm46.748-203.01c-.905-3.498 1.14-6.726 1.407-10.27 2.06.109 3.414-1.93 5.582-2.393 1.546-.331 2.979-.872 4.665-1.074 7.084-.852 13.601.948 20.088 3.33 2.945 1.081 5.745 2.51 8.63 3.727 3.065 1.291 5.845 3.323 8.61 5.234 1.307.904 2.834 1.113 4.177 1.92 1.913 1.146 3.442 2.799 5.452 3.781 2.8 1.369 5.25 3.335 8.078 4.696.94.452 1.502 1.626 2.65 2.274 1.244.702 2.614 1.459 4.061 2.729-2.381.025-2.399 4.46-5.475 2.384-1.375.102.245 1.406-.86 1.589-1.27.208-2.47-.26-3.364-.92-1.46-1.08-2.996-1.28-4.68-1.235-.255.008-.587-.101-.76-.277-1.684-1.698-4.223-1.996-5.927-3.645-.33-.32-.683-.423-1.155-.441-2.894-.112-5.354-1.498-7.878-2.723-2.435-1.183-4.736-2.743-7.624-2.701-3.278.049-6.052-1.813-9.148-2.504-3.045-.68-5.993-2.042-9.054-2.317-2.072-.186-4.208.17-6.408-.05-3.585-.36-7.193-.652-11.067-1.113zm72.025-91.557c-.561.846-1.503 1.166-1.598 2.095 1.254 1.392 2.418 2.868 4.287 4.178-2.344-.098-4.192-.317-5.928-1.212-.534-.276-1.225-.553-1.846-.207-2.14 1.195-4.281.27-6.27-.236-3.833-.977-7.367-3.123-11.48-3.026-2.737.065-5.026-1.404-7.538-2.002-2.869-.682-5.723-1.662-8.856-1.323-2.817.304-5.494-1.323-8.406-1.243-2.054.057-4.125-.26-6.156.233-2.47.597-4.95.378-7.416.113-3.019-.323-4.733-2.556-6.044-4.893-.84-1.5.84-2.938 1.686-3.793 2.28-2.303 4.416-5.012 7.818-5.841 3.252-.792 6.453-1.533 9.91-.675 3.09.766 6.32.972 9.437 1.735 3.832.936 7.538 2.21 11.263 3.514 3.979 1.395 7.135 4.192 11.273 5.425 3.341.996 6.538 3.084 9.798 4.692 1.897.935 3.852 1.675 6.066 2.466zm3.423 50.598c-.553.775-1.352-.756-1.953.456 2.458.332 1.44 2.6 1.08 3.23-.571 1.002-1.686 2.415-3.647 1.386-2.945-1.546-6.415-1.34-9.512-2.324-2.799-.89-5.836-1.224-8.35-2.965-.2-.139-.55-.038-.812-.11-3.55-.971-7.044-2.387-10.657-2.822-4.284-.516-8.524-1.282-12.776-1.938-3.574-.551-7.053-1.738-10.565-2.677-3.801-1.017-3.755-1.033-3.635-5.14.058-2.005.884-3.124 2.778-4.017 1.553-.732 2.852-1.822 4.623-2.417 2.16-.726 3.983-.348 6.048-.177 3.057.253 6.122.277 9.14.964.611.14 1.223.206 1.83.437 2.299.873 4.732 1.233 7.111 1.806 1.46.352 2.854.963 3.782 2.336.884 1.305 2.543 1.045 3.794 1.648 3.93 1.896 7.497 4.44 11.37 6.398a1288.385 1288.385 0 0 0 8.75 4.39c.737.365 1.2.91 1.601 1.536zM581.614 322.35c-.605 14.944-11.668 26.282-26.874 26.223-12.36-.048-27.16-9.115-26.247-26.623.762-14.598 11.62-26.167 27.173-25.92 14.533.23 25.312 10.896 25.948 26.32z"/><path d="M306.333 365.33c-15.276 64.257-13.781 104.44-13.078 159.058.414 32.202.583 65.081 10.092 95.72 10.912 35.158 21.49 51.07 29.176 64.851a7.752 7.752 0 0 0 1.04 2.295c2.57 3.837 5.264 7.59 8.049 11.278-.026.045-.053.084-.078.129-1.31 2.366.158 7.753 3.178 8.757 1.144.38 2.003 1.338 2.546 2.297a120.77 120.77 0 0 1 1.652 3.017c-6.133-2.973-12.223-6.03-18.204-9.298-1.738-1.942-9.47-12.774-11.462-16.066-3.532-5.834-23.787-36.264-31.414-80.113-7.209-41.448-7.404-111.695-5.101-144.102 1.51-21.258 5.212-69.054 15.077-108.041 0 0 14.561-54.488 47.178-114.152 1.61-3.331 4.25-5.823 6.238-8.78 1.933-2.877 3.519-6.037 5.96-8.62 2.753-2.91 5.376-5.972 7.77-9.182 2.047-2.749 4.755-4.797 7.01-7.315 1.467-1.638 3.357-2.915 5.135-4.252 1.797-1.353 2.475-3.299 1.595-5.097-1.733-3.54-2.09-7.345-2.951-11.07-1.13-4.886.605-9.184 2.311-13.526.765-1.946 1.64-3.848 2.423-5.788.563-1.399 1.857-2.19 2.684-3.405 3.743-5.495 9.216-9.044 15.332-10.927 3.271-1.007 7.174-1.906 10.684-1.04 2.945.726 5.754 2.303 8.64 3.38 5.566 2.076 8.05 6.726 10.673 11.394 1.014 1.807 2.073 3.589 3.175 5.49 5.083-.89 9.874-2.784 14.733-4.297 4.98-1.55 10.08-2.349 15.12-3.485 5.176-1.166 10.412-2.06 15.63-3.024 2.546-.47 5.103-1.076 7.672-1.18 3.565-.146 7.097-.662 10.688-.582 5.283.118 10.553-.558 15.856-.46 6.404.121 12.703 1.032 19.026 1.88 4.637.622 9.348.753 13.957 1.52 3.776.627 7.573 1.307 11.217 2.676 1.984.745 4.203.844 6.293 1.335 4.265 1.003 8.147 3.038 12.192 4.631 3.012 1.187 6.004 2.439 9.071 3.466 2.73.914 4.95 2.728 7.547 3.901 4.481 2.024 8.822 4.374 13.24 6.55 1.922.944 3.86 1.98 5.68 3.214 2.206 1.497 4.726 2.536 7.12 3.754 8.15 4.148 16.443 8.014 23.644 13.83 4.493 3.631 9.25 6.942 13.955 10.305 1.807 1.29 3.342 2.945 5.612 3.662 1.318.416 2.263.302 3.067-.576 2.48-2.709 5.756-4.458 8.303-7.135 1.31-1.379 3.555-1.87 5.383-2.754 2.568-1.243 5.099-2.572 7.719-3.695 7.57-3.247 15.544-3.743 23.644-3.32 1.248.066 1.907 1.145 3.037 1.471 3.025.875 6.058 1.793 8.964 2.994 6.343 2.624 10.866 7.226 14.203 13.205 1.082 1.938 2.094 3.966 3.63 5.726 1.101 1.262 1.512 3.291 1.782 5.047.15.977.046 2.116.366 3.036 1.712 4.922.138 9.642-.925 14.318-.631 2.779-1.284 5.678-3.014 8.119-3.567 5.031-7.411 9.76-12.011 13.965-2.73 2.495-5.703 4.584-8.745 6.482-3.283 2.048-7.36 2.324-11.411 3.496 4.71 8.486 6.974 17.676 9.433 26.815 5.494 20.412 4.846 41.09 1.263 61.734-1.74 10.02-4.932 19.613-7.415 29.41-2.018 7.962-4.066 15.924-6.438 23.786-.963 3.193-2.425 6.41-3.385 10.745-3.778 17.678-3.973 18.097-7.261 39.26s-3.974 46.63-4.477 52.21c-4.482 49.739 25.465 97.07 13.537 146.72-3.53 14.697-10.802 27.69-18.373 40.646-9.33 15.967-19.322 28.09-31.82 41.504-2.108 2.261-22.477 17.455-33.52 22.315.259.131-4.483 2.517-4.89 2.655-2.113.715-7.63 3.432-8.291 3.966-3.424 1.34-8.044 2.742-9.654 3.432.018.165-9.123 2.426-13.6 3.894.01-.046.027-.09.037-.136-5.128.918-11.86 2.33-16.925 2.172-4.904-.152-9.706 1.32-14.578.95-5.862-.445-11.695.33-17.546.046-2.567-.125-4.913-1.668-7.437-1.35-5.835.733-11.463-1.09-17.245-1.176-2.569-.038-5.345-1.058-7.979-1.767-6.16-1.656-12.437-2.736-18.641-4.161-7.293-1.675-14.534-3.628-21.886-4.973-5.33-.975-9.922-3.79-15.108-5.11-6.325-1.611-12.477-3.898-18.708-5.881-4.706-1.498-25.041-10.746-33.354-14.47-.122-.078-.237-.164-.364-.236-3.829-2.212-7.782-4.973-11.763-6.884.212-3.903.037-7.275-.76-10.427a142.293 142.293 0 0 0-.816-3.059c3.696 2.42 7.488 4.7 11.322 6.89.007.126.012.24.015.333 4.27 2.192 10.9 5.247 14.631 6.915 17.672 7.902 28.646 11.183 42.15 15.443 41.399 13.058 90.314 25.032 133.474 14.753 50.618-12.056 89.118-55.79 104.754-104.192 4.546-14.071 7.428-30.954 5.784-45.792-1.842-16.635-9.268-33.309-11.422-50.122-2.767-21.578-7.294-52.472 1.63-107.637 3.767-23.278 7.25-35.68 7.25-35.68 2.58-10.782 11.721-44.153 13.516-50.22 3.165-10.7 4.57-21.916 5.762-32.912 1.778-16.396-1.039-31.563-5.754-47.217-2.4-7.972-5.411-16.25-9.224-23.86-2.84-5.67-9.756-17.94-16.531-19.793-2.66-.728-5.238-1.94-8.118-1.39.038-1.954.832-3.524 1.394-5.13 1.638-4.675 4.222-9.02 7.603-12.423 3.44-3.462 7.419-6.583 12.393-8.204 2.222-.723 4.538-1.564 6.736-1.856 2.26-.3 4.446-.992 6.742-1.178 3.133-.253 5.816.79 8.65 1.745 1.869.63 3.356 1.986 5.312 2.398.494.103 1.061.73.902 1.477-.26 1.213.48 2.191.743 3.167-6.622.945-13.476-1.268-19.897 1.668.735 1.813 1.522 3.693 3.327 4.021 1.325.242 2.39.817 3.585 1.221 1.916.648 3.782 1.558 5.837 1.702.95.067 1.935.228 1.695 1.325-.179.822-.393 2.083-1.83 1.988-1.939-.128-3.885.495-5.75.382-5.532-.332-11.106 1.25-16.598-.37-.152-.046-.354.081-.766.189 2.87 3.83 5.793 7.405 8.323 11.239 1.429 2.165 3.657 3.864 4.136 6.68.093.549.572 1.908 1.412 1.523 1.544-.707 3.192.003 4.703-.762 2.356-1.193 4.953-1.796 7.4-2.818 3.273-1.368 6.122-3.232 8.236-5.969 1.905-2.465 3.914-4.801 5.414-7.701 1.767-3.416 2.7-6.957 2.502-10.395-.213-3.676-.443-7.512-2.028-11.144-1.633-3.743-3.764-7.17-6.478-9.983-2.727-2.826-6.69-4.223-10.397-5.593-7.794-2.879-15.587-2.555-23.367.394-6.979 2.644-12.816 6.906-18.12 12.024-4.316 4.163-8.628 8.333-12.972 12.468-1.577 1.5-3.614 1.125-4.429-.83-.32-.766-.961-1.214-1.423-1.976 1.18-2.321 2.181-4.56 3.813-6.452.727-.841.935-1.449-.592-2.156-3.679-1.703-6.805-4.319-9.893-6.946-2.973-2.53-5.9-5.135-9.06-7.412-3.337-2.407-7.13-4.136-10.605-6.32-2.079-1.306-4.292-2.44-6.308-3.923-2.332-1.715-5.142-2.916-7.908-3.863-2.444-.836-4.625-1.976-6.812-3.306-2.767-1.681-5.57-3.573-8.554-4.593-4.594-1.57-8.65-4.25-13.305-5.712-2.204-.694-4.543-1.39-6.705-2.418-1.922-.912-4.17-1.259-5.907-2.408-3.959-2.62-8.598-2.935-12.94-4.112-4.204-1.14-8.58-1.765-12.932-2.38-3.725-.528-7.341-2.02-11.065-2.301-7.336-.556-14.645-1.428-22.066-1.122-11.12.458-22.26-.236-33.335 1.836-4.534.849-8.877 2.38-13.573 2.816-6.982.646-13.338 3.992-19.886 6.438-2.318.867-4.568 2.046-6.973 2.55-2.459.515-4.86 1.203-7.075 2.26-6.177 2.949-12.331 5.942-18.208 9.504-6.52 3.952-13.524 7.08-19.603 11.803-4.03 3.13-8.484 5.726-12.127 9.344-3.867 3.84-6.647 8.569-10.135 12.73-1.867 2.226-23.396 35.984-31.54 54.37-15.63 35.278-28.062 77.342-28.546 79.378zM410.65 182.43c-1.34.685-1.835.067-2.47-.953-1.003-1.611-.806-4.118-3.038-4.768-1.418-.414-3.08-2.313-4.54.168-.199.338-1.138.241-1.85.366.407 1.134.105 2.1-.548 3.035-1.195 1.714-1.562 3.542-.446 5.451.96 1.645.777 2.811-1.159 3.576-2.515.994-4.549 2.945-7.232 3.903-1.85-2.632-2.465-5.613-2.708-8.543-.33-3.96-.714-8.176 1.44-11.708 1.496-2.45 2.873-5.045 5.621-6.8 3.052-1.947 6.266-2.603 9.63-3.122 2.182-.337 4.242.517 6.224 1.191 3.96 1.348 6.01 4.813 7.838 8.215.955 1.775 2.79 3.063 3.068 5.251-3.336 1.597-6.618 3.098-9.83 4.738z"/><path d="M387.912 253.064c-20.632-23.597-71.11-3.12-83.966 21.973-14.617 28.531-10.848 67.154 6.623 74.214s51.393 1.245 67.91-18.395 27.752-51.957 9.433-77.792z" fill="#FFF"/><path d="m384.018 256.116-.386-.427-.353-.388-.342-.337-.398-.4-.534-.483c-1.51-1.362-3.942-3.185-7.627-4.604-3.666-1.429-8.619-2.351-14.503-2.159-5.873.186-12.641 1.464-19.66 4.066a78.18 78.18 0 0 0-10.617 4.875 74.527 74.527 0 0 0-5.26 3.2 67.695 67.695 0 0 0-5.068 3.765c-3.29 2.69-6.386 5.782-8.913 9.277-.325.432-.613.883-.923 1.324-.279.454-.589.899-.85 1.363l-.406.69-.377.703-.171.317-.202.407-.404.815-.717 1.53c-.233.53-.478 1.053-.7 1.59a73.628 73.628 0 0 0-1.3 3.25 81.768 81.768 0 0 0-3.784 13.798c-.852 4.77-1.318 9.674-1.304 14.591.006 4.913.498 9.852 1.619 14.563a42.858 42.858 0 0 0 2.192 6.796c.906 2.154 2.018 4.161 3.327 5.88 1.308 1.72 2.818 3.131 4.46 4.06.205.114.408.235.62.33.207.107.418.204.632.287l.158.068.08.035.043.016.462.173c.338.132.534.187.788.276a31.97 31.97 0 0 0 3.3.899c4.56.983 9.448 1.182 14.26.87 4.823-.314 9.607-1.157 14.197-2.414 4.587-1.266 8.994-2.932 13.066-4.998 4.074-2.06 7.803-4.53 11.04-7.316a42.477 42.477 0 0 0 4.447-4.428l.475-.556.55-.671c.37-.452.659-.82.996-1.249a83.94 83.94 0 0 0 1.919-2.566c4.93-6.923 8.605-14.184 10.899-21.163 2.373-6.96 3.358-13.627 3.349-19.454-.01-5.838-1.034-10.828-2.355-14.75a44.758 44.758 0 0 0-4.006-8.756 31.926 31.926 0 0 0-.774-1.262 21.715 21.715 0 0 0-.587-.902c-.157-.23-.276-.408-.358-.53zm7.92-5.907.608.865a30.837 30.837 0 0 1 .73 1.075 40.387 40.387 0 0 1 .965 1.508 54.802 54.802 0 0 1 5.097 10.598c1.716 4.78 3.086 10.897 3.23 17.932.168 7.026-.952 14.913-3.57 22.977a85.758 85.758 0 0 1-5.094 12.133 87.53 87.53 0 0 1-7.352 11.94 96.854 96.854 0 0 1-2.207 2.895 90.602 90.602 0 0 1-1.173 1.443l-.557.666-.663.763a52.994 52.994 0 0 1-5.603 5.472c-4.007 3.395-8.52 6.227-13.302 8.563a77.877 77.877 0 0 1-15.119 5.488c-5.256 1.32-10.69 2.16-16.24 2.405-5.546.234-11.218-.08-16.917-1.428a41.943 41.943 0 0 1-4.281-1.267c-.365-.134-.793-.285-1.067-.4l-.458-.182-.186-.076-.147-.065-.294-.13a14.812 14.812 0 0 1-1.154-.555c-.383-.19-.746-.405-1.11-.62-2.916-1.744-5.244-4.106-7.076-6.613-1.837-2.52-3.224-5.206-4.311-7.927a51.788 51.788 0 0 1-2.497-8.26c-1.2-5.546-1.624-11.101-1.578-16.569.055-5.47.639-10.856 1.641-16.093a90.15 90.15 0 0 1 4.277-15.188 81.882 81.882 0 0 1 1.466-3.598c.25-.595.526-1.178.79-1.764l.846-1.77.409-.812.204-.406.257-.483.48-.892.508-.867c.331-.583.704-1.127 1.055-1.69.374-.54.732-1.093 1.121-1.614 3.064-4.222 6.625-7.753 10.31-10.842 7.42-6.127 15.367-10.53 23.13-13.581 7.765-3.044 15.377-4.751 22.35-5.14 6.969-.421 13.285.58 18.258 2.393 4.994 1.797 8.557 4.315 10.735 6.208l.773.674.694.666.587.574.378.399.87.927.187.268z"/><path d="M465.563 377.069c-1.213-16.864-20.054-27.57-36.222-30.83-4.476-.903-7.685-1.48-13.588-1.911-5.196-6.932-15.517-6.644-18.324-6.976-2.693-.32-8.653.459-11.164 2.87-1.4.056-2.765-.336-4.204-.867 0 0-5.25-.931-10.096-1.351-9.024-.262-20.168 1.916-25.007 12.26-2.675 5.717-4.316 8.898-4.316 8.898-.32 1.247-.783 2.703-1.06 4.194-.854 4.593.017 8.926 1.698 13.26 1.04 2.677 2.3 5.043 4.586 6.746 3.606 2.685 6.686 3.35 11.283 2.504.202 3.65 1.468 7.045 2.571 10.466 1.89 5.86 4.01 11.617 7.414 16.853 1.09 1.677 4.31 6.764 4.86 8.366-.999.425-6.661.717-10.41 6.374-5.91 8.919-6.705 14.782-7.504 18.497-3.027 14.065 4.163 23.848 12.424 28 7.833 3.936 25.125 5.637 31.459-8.288 14.335 7.505 28.372 4.956 36.156.953 14.66-7.54 15.511-20.378 16.121-27.152.27-2.996-.28-6.058-.351-9.094-.09-3.822-.37-7.6.254-11.477 3.803-23.616 14.763-23.616 13.42-42.295zm-41.769 84.67c-2.4.492-2.477.328-6.246-1.731-4.425-2.418-9.608-5.189-13.868-8.468-2.044-1.574-2.638-5.813-2.214-8.351.29-1.735.393-3.378 1.455-4.961.575-.857.29-2.263-1.537-2.357-3.297-.168-5.298 1.454-5.885 5.137-.148.928.29 10.017.537 14.688.302 5.703-3.673 10.985-8.708 12.791-5.946 2.133-11.55.665-16.84-1.754-2.392-1.093-3.47-4.063-4.473-6.236-2.4-5.195-1.576-11.171-.873-16.583.684-5.271 3.463-9.075 6.508-13.151 1.423-1.904 4.733-3.971 7.922-1.862-1.965 3.559-4.307 7.786-3.992 17.159.06 1.799.548 6.56 2.024 8.183 1.268 1.395 4.402 1.209 5.19-.192.338-.603.463-1.31.076-1.76-2.572-2.995-2.284-8.533-1.608-11.81.77-3.737 3.6-14.442 13.957-17.105 3.977-1.023 8.36-.708 12.474.512 12.371 3.668 23.045 12.486 32.1 27.114-3.105 7.45-12.413 10.003-15.999 10.737zm-21.143-58.584c.02.84 1 7.62-1.607 8.365-5.18 1.483-6.699-.095-8.058-2.69-2.517-4.806-3.272-11.79-3.184-17.01.04-2.443.618-4.44.433-5.547-.878-2.14-2.333-1.243-3.147-.067-.782 1.845-.837 7.544-.695 9.531.232 3.25.424 5.626 1.537 9.588.381 1.357-.888 3.727-4.036 2.571-3.476-1.275-4.297-2.988-5.16-5.107-2.36-5.803-4.038-15.745-3.721-20.993 3.312-1.467 8.857-2.708 12.66-2.32 5.118.52 9.378 2.018 13.644 4.279 1.729.916 3.274 2.179 4.816 3.225-.276-.187-2.483 3.848-3.106 8.303-.402 2.872-.443 4.985-.376 7.872zm20.554-14.263c-7.984-3.367-13.293-7.064-20.433-11.773-3.51-2.313-8.342-4.543-12.7-4.906-5.064-.42-9.22.098-14.008 2.108-3.99 1.674-7.421 3.438-11.799 4.005-3.46.447-7.237-.108-10.257-2.51-2.906-2.31-3.883-5.716-3.465-9.003.689-5.429 2.666-10.677 6.796-14.446 2.489-2.27 5.537-4.011 9.265-4.402 3.364-.353 6.696-1.033 10.096-.817 1.804.114 3.594.443 5.569.699-.648 2.348-.09 3.834 1.275 5.518 4.398 5.426 10.702 6.802 16.852 7.144 5.219.29 14-.71 15.772-7.54 7.978 1.92 18.336 4.946 25.356 9.681 6.157 4.152 10.49 9.737 10.736 17.388.512 15.824-19.518 12.875-29.055 8.854z"/><path d="M376.7 347.148c-3.4-.216-6.732.464-10.096.817-3.728.39-6.776 2.131-9.265 4.402-4.13 3.768-6.107 9.017-6.796 14.446-.418 3.287.559 6.693 3.465 9.003 3.02 2.402 6.797 2.957 10.257 2.51 4.378-.567 7.81-2.33 11.8-4.005 4.787-2.01 8.943-2.529 14.006-2.108 4.36.362 9.191 2.593 12.7 4.906 7.141 4.709 12.45 8.406 20.434 11.773 9.537 4.021 25.617 9.514 30.387-7.522 2.064-7.372-5.911-16.431-12.068-20.584-7.02-4.735-17.379-5.897-25.357-7.816-1.772 6.83-10.553 7.83-15.771 7.54-6.15-.343-12.455-1.718-16.853-7.145-1.365-1.684-1.923-3.17-1.275-5.518-1.974-.256-3.764-.585-5.568-.7z" fill="#DEC4A1"/><path d="M323.945 296.895c-4.686 12.635-14.993 19.952-24.94 16.555-8.085-2.762-15.18-13.767-9.556-28.524 4.689-12.304 14.928-19.865 25.048-16.23 9.457 3.397 13.458 14.882 9.448 28.2z"/><path d="M574.502 320.113c-.201 4.94-3.759 8.688-8.785 8.668-4.087-.015-8.979-3.013-8.677-8.8.251-4.826 3.742-8.65 8.883-8.569 4.805.076 8.367 3.602 8.579 8.7zm-254.549-33.698c-.166 4.11-3.126 7.228-7.308 7.211-3.4-.013-7.47-2.507-7.218-7.321.209-4.015 3.113-7.197 7.39-7.13 3.998.065 6.961 2.998 7.136 7.24z" fill="#FFF"/><path d="M659.063 464.639s-6.965 10.977-3.264 20.317c5.947 15.009 21.696 13.906 21.696 13.906s5.453 3.063 30.481-4.46c35.21-10.585 50.766-34.023 45.85-55.478-5.62-24.526-42.288-31.675-48.742-4.546-6.152 25.866-46.02 30.26-46.02 30.26z" fill="#DEC4A1"/><path d="M661.887 469.513c-.426.712-.84 1.441-1.183 2.195-.364.801-.711 1.61-.976 2.432a18.843 18.843 0 0 0-.641 2.47c-.291 1.645-.35 3.273-.082 4.763.02.19.075.368.113.552.036.185.087.363.142.54.054.175.096.357.166.526l.153.423.309.698.154.348c.05.112.106.248.148.316.19.336.335.657.544 1.01.422.717.864 1.416 1.373 2.052.486.657 1.05 1.238 1.618 1.809.596.542 1.2 1.075 1.872 1.527a15.554 15.554 0 0 0 2.09 1.249c1.455.747 3.055 1.275 4.703 1.636.826.178 1.67.295 2.508.366.42.035.837.057 1.246.066h.597l.279-.007c.069-.003.206-.011.167-.01l2.462.552c-.411-.218-.299-.153-.377-.191-.07-.024-.024-.015-.02-.016a.117.117 0 0 1 .032.007l.1.016c.079.01.125.029.226.039l.293.034c.178.033.441.032.66.05.219.023.476.02.727.022.992.021 2.092-.055 3.19-.153a62.27 62.27 0 0 0 6.796-1.09c4.586-.97 9.2-2.303 13.776-3.779l.859-.272.43-.136.397-.132.875-.296c.297-.1.583-.198.844-.294a98.675 98.675 0 0 0 3.265-1.218 91.06 91.06 0 0 0 6.398-2.792 82.311 82.311 0 0 0 6.083-3.273 74.01 74.01 0 0 0 5.681-3.768c3.643-2.663 6.917-5.708 9.7-9.036 2.787-3.323 5-6.996 6.487-10.842 1.503-3.84 2.228-7.876 2.084-11.87a31.18 31.18 0 0 0-.251-2.987 26.885 26.885 0 0 0-.239-1.483 15.395 15.395 0 0 0-.148-.737l-.079-.369-.01-.046c-.031-.135.033.134.021.085l-.028-.112-.057-.224-.113-.448-.056-.224-.028-.108-.023-.07-.172-.567c-.143-.417-.29-.88-.469-1.306a19.673 19.673 0 0 0-1.197-2.53c-1.824-3.257-4.58-6.054-7.874-8.033-3.265-2.014-7.081-3.197-10.755-3.315-1.834-.054-3.624.16-5.27.643-1.647.488-3.15 1.224-4.473 2.211-1.318.993-2.45 2.249-3.392 3.73-.932 1.491-1.676 3.207-2.19 5.09l-.478 1.762c-.197.659-.472 1.604-.728 2.251a32.46 32.46 0 0 1-1.83 4.134c-1.39 2.67-3.138 5.103-5.073 7.28-3.894 4.361-8.532 7.633-13.314 10.191-4.795 2.563-9.77 4.453-14.809 5.895a90.847 90.847 0 0 1-11.468 2.515 88.57 88.57 0 0 1-1.765.25zm-6.258-9.532 3.624-.604.833-.151c.56-.106 1.124-.219 1.69-.34a85.267 85.267 0 0 0 3.384-.793c2.248-.582 4.482-1.219 6.667-1.962 4.364-1.487 8.585-3.281 12.403-5.513 3.807-2.236 7.235-4.883 9.83-7.963 1.29-1.543 2.388-3.177 3.222-4.906.421-.862.79-1.744 1.083-2.65l.115-.338.084-.293.089-.292c.03-.099.058-.176.099-.348l.455-1.813c.728-2.881 1.863-5.777 3.49-8.498 1.633-2.714 3.781-5.238 6.361-7.265a26.179 26.179 0 0 1 8.618-4.47c3.073-.934 6.234-1.317 9.324-1.254 6.184.151 12.092 1.988 17.247 5.076 5.145 3.096 9.551 7.54 12.536 12.89a32.776 32.776 0 0 1 1.955 4.147c.29.714.524 1.423.77 2.173l.354 1.205.043.151.03.116.056.224.112.448.056.224.089.376.114.536c.079.356.15.714.213 1.074.136.718.246 1.44.342 2.166.192 1.45.308 2.913.326 4.377a41.986 41.986 0 0 1-.771 8.71 44.183 44.183 0 0 1-2.5 8.28c-2.204 5.298-5.377 10.037-9.05 14.145-3.68 4.116-7.9 7.585-12.341 10.547-4.45 2.963-9.165 5.378-13.978 7.403a102.959 102.959 0 0 1-7.306 2.733c-1.23.412-2.452.79-3.729 1.167a34.91 34.91 0 0 1-.917.264l-.89.25-.945.254-.916.24c-4.875 1.3-9.808 2.466-14.914 3.281-2.554.401-5.145.746-7.84.909-1.36.068-2.724.113-4.194.03-.365-.02-.723-.033-1.117-.08-.394-.048-.748-.067-1.177-.145l-.62-.105c-.203-.034-.454-.1-.678-.151l-.349-.087-.41-.126c-.143-.047-.248-.076-.459-.16-.22-.097-.254-.08-.802-.37l2.462.552c-.293.016-.41.015-.595.019l-.484-.003a26.882 26.882 0 0 1-.927-.031 29.7 29.7 0 0 1-1.794-.155 31.233 31.233 0 0 1-3.507-.618c-2.309-.555-4.587-1.361-6.729-2.514a24.001 24.001 0 0 1-3.097-1.946c-.996-.712-1.913-1.537-2.795-2.389-.853-.88-1.677-1.792-2.388-2.78-.735-.973-1.366-2.007-1.948-3.057-.295-.528-.572-1.134-.85-1.7-.078-.157-.115-.257-.167-.378l-.147-.352-.294-.704-.083-.203-.042-.115-.083-.229-.164-.46c-.116-.305-.197-.617-.289-.928-.188-.62-.312-1.25-.44-1.875-.245-1.254-.345-2.508-.378-3.742a28.345 28.345 0 0 1 .166-3.64c.122-1.193.326-2.357.565-3.504.25-1.143.52-2.274.858-3.38.341-1.106.682-2.21 1.1-3.292a35.893 35.893 0 0 1 .634-1.638l.345-.833c.126-.288.236-.547.416-.912l.944-1.912z"/><path d="M361.348 763.366c-23.96.256-16.535-16.205-31.441-28.315-10.88-8.839-40.121-12.992-19.573-37.492 20.548-24.5 49.117-24.977 60.719 3.952 11.602 28.929 13.165 61.61-9.705 61.855z" fill="#DEC4A1"/><path d="m361.272 769.713-.712-.022-.872-.025-.56-.017-.79-.053c-.557-.043-1.192-.077-1.865-.15-.667-.089-1.384-.168-2.176-.297-1.594-.287-3.461-.678-5.603-1.496a61.8 61.8 0 0 1-1.644-.718c-.558-.28-1.124-.6-1.7-.922-.56-.373-1.145-.734-1.703-1.164-.552-.441-1.127-.88-1.643-1.396-1.084-.993-2.021-2.148-2.868-3.337-.846-1.2-1.527-2.43-2.158-3.66-.617-1.229-1.144-2.43-1.66-3.618-.508-1.182-.993-2.322-1.498-3.443a47.49 47.49 0 0 0-1.605-3.23 31.007 31.007 0 0 0-1.914-3c-.725-.944-1.488-1.888-2.386-2.753-.21-.228-.445-.438-.681-.649l-.352-.32-.176-.162-.089-.081-.044-.04c.234.183.033.024.07.053l-.907-.724a2.408 2.408 0 0 0-.194-.145l-.17-.119-.337-.244c-.197-.156-.528-.359-.804-.544a17.75 17.75 0 0 0-.892-.565c-.607-.375-1.262-.747-1.923-1.122a240.168 240.168 0 0 0-4.246-2.291c-1.483-.796-3.025-1.61-4.604-2.498-1.582-.903-3.199-1.884-4.826-3.033-1.62-1.146-3.275-2.487-4.824-4.18-1.536-1.686-2.977-3.82-3.807-6.345-.846-2.518-.968-5.285-.575-7.743l.164-.92a6.72 6.72 0 0 1 .202-.893l.508-1.72c.194-.55.418-1.072.632-1.608.11-.265.215-.536.33-.796l.375-.742.759-1.485.836-1.383c.546-.948 1.167-1.78 1.77-2.65l.456-.648.478-.611.962-1.222.483-.61.536-.626.928-1.088.465-.544c.154-.181.355-.386.53-.578l1.09-1.17c.726-.806 1.475-1.492 2.217-2.23a63.421 63.421 0 0 1 4.752-4.132c3.328-2.614 7.009-4.928 11.041-6.7 2-.915 4.127-1.615 6.288-2.22l1.65-.385c.275-.061.548-.132.827-.184l.843-.139c.562-.088 1.123-.188 1.689-.262l1.714-.156"/></svg>